<?xml version="1.0" encoding="UTF-8"?>
<svg xmlns="http://www.w3.org/2000/svg" baseProfile="tiny" version="1.2" viewBox="0 0 113.39 113.39">
  <!-- Generator: Adobe Illustrator 28.7.4, SVG Export Plug-In . SVG Version: 1.2.0 Build 166)  -->
  <g>
    <g id="_レイヤー_1" data-name="レイヤー_1">
      <g id="_編集モード" data-name="編集モード">
        <path d="M102.06,17.23l-11.18-8.73-42,54.08h-1.08c-6.06,0-12.62,3.34-17.08,9.35-6.72,9-1.65,20.4-16.39,33,23.44,0,36.2-4,43.18-13.63,5.15-7.14,6-15,3.2-20.8l41.35-53.27ZM53,87.94l-.13.18c-11.43,2.73-6.18-8.73-20.64-4.58.73-3.3,1.42-6,3.12-8.25,3.24-4.36,8-7.06,12.53-7.06,1.83-.04,3.62.51,5.12,1.56,5,3.59,5,11.21,0,18.15Z" fill="#040000"/>
      </g>
    </g>
  </g>
</svg>