<?xml version="1.0" encoding="UTF-8"?>
<svg xmlns="http://www.w3.org/2000/svg" baseProfile="tiny" version="1.2" viewBox="0 0 113.39 113.39">
  <!-- Generator: Adobe Illustrator 28.7.4, SVG Export Plug-In . SVG Version: 1.2.0 Build 166)  -->
  <g>
    <g id="_レイヤー_1" data-name="レイヤー_1">
      <g id="_編集モード" data-name="編集モード">
        <path d="M56.69,5.67c-23.47.03-42.49,19.05-42.52,42.52v14.17h5.67v-14.17c0-20.35,16.49-36.85,36.84-36.86,20.35,0,36.85,16.49,36.86,36.84v14.19h5.67v-14.17c-.03-23.47-19.05-42.49-42.52-42.52Z" fill="#040000"/>
        <rect x="24.09" y="48.11" width="5.67" height="17.08" fill="#040000"/>
        <rect x="34.01" y="42.41" width="5.67" height="28.49" fill="#040000"/>
        <rect x="83.62" y="48.11" width="5.67" height="17.08" fill="#040000"/>
        <rect x="73.7" y="42.41" width="5.67" height="28.49" fill="#040000"/>
        <circle cx="56.69" cy="55.29" r="12.76" fill="#040000"/>
        <path d="M34,107.72h45.37v-21.72c-.01-6.8-5.52-12.3-12.32-12.3h-20.72c-6.8-.01-12.32,5.49-12.33,12.29h0v21.73Z" fill="#040000"/>
      </g>
    </g>
  </g>
</svg>