<?xml version="1.0" encoding="utf-8"?>
<!-- Generator: Adobe Illustrator 24.3.0, SVG Export Plug-In . SVG Version: 6.00 Build 0)  -->
<svg version="1.1" id="レイヤー_1" xmlns="http://www.w3.org/2000/svg" xmlns:xlink="http://www.w3.org/1999/xlink" x="0px"
	 y="0px" viewBox="0 0 113.4 113.4" style="enable-background:new 0 0 113.4 113.4;" xml:space="preserve">
<style type="text/css">
	.st0{fill:none;}
</style>
<g>
	<rect class="st0" width="113.4" height="113.4"/>
	<path d="M68,17c-4.5,0-8.7,2.1-11.3,5.7C54,19.1,49.8,17,45.3,17H5.6v76.5h39.7c3.6,0,6.8,2.3,8,5.7H60c1.2-3.4,4.4-5.7,8-5.7h39.7
		V17H68z M102,87.9H68c-4.5,0-8.7,2.1-11.3,5.7c-2.7-3.6-6.9-5.7-11.4-5.7h-34V22.7h34c3.6,0,6.8,2.3,8,5.7H60
		c1.2-3.4,4.4-5.7,8-5.7h34V87.9z"/>
	<rect x="19.8" y="36.8" width="28.4" height="5.7"/>
	<rect x="19.8" y="53.9" width="28.4" height="5.7"/>
	<rect x="19.8" y="70.9" width="28.4" height="5.7"/>
	<rect x="62.4" y="70.9" width="31.2" height="5.7"/>
	<path d="M62.4,59.5h31.2V36.9H62.4V59.5z M68,42.5h19.9v11.3H68l0,0"/>
</g>
</svg>
